# xmcd
#
# Track frame offsets: 
#        150
#        22690
#        43690
#        62522
#        84200
#        103995
#        129667
#        154545
#        172265
#        197140
#        220110
#
# Disc length: 3233 seconds
#
# Revision: 10
# Processed by: cddbd v1.5.2PL0 Copyright (c) Steve Scherf et al.
# Submitted via: ExactAudioCopyFreeDBPlugin 1.0
#
DISCID=8d0c9f0b
DTITLE=Whitney Houston - I'm Your Baby Tonight
DYEAR=1990
DGENRE=Pop
TTITLE0=I'm Your Baby Tonight
TTITLE1=My Name Is Not Susan
TTITLE2=All the Man that I Need
TTITLE3=Lover for Life
TTITLE4=Anymore
TTITLE5=Miracle
TTITLE6=I Belong to You
TTITLE7=Who Do You Love
TTITLE8=We Didn't Know (duet with Stevie Wonder)
TTITLE9=After We Make Love
TTITLE10=I'm Knockin'
EXTD=
EXTT0=
EXTT1=
EXTT2=
EXTT3=
EXTT4=
EXTT5=
EXTT6=
EXTT7=
EXTT8=
EXTT9=
EXTT10=
PLAYORDER=
